<svg width="36" height="35" viewBox="0 0 36 35" fill="none" xmlns="http://www.w3.org/2000/svg">
<path d="M28.2145 19.9769C28.4868 19.477 29.1659 19.477 29.4365 19.9769L31.7084 24.1624L35.6477 26.5774C36.1169 26.8649 36.1169 27.5862 35.6477 27.8755L31.7084 30.2875L29.4365 34.473C29.1643 34.9732 28.4851 34.9732 28.2145 34.473L25.9436 30.2875L22.0043 27.8755C21.5338 27.5863 21.534 26.8651 22.0043 26.5774L25.9436 24.1624L28.2145 19.9769ZM12.3053 0.661802C12.8156 -0.220579 14.0885 -0.220289 14.5962 0.661802L18.8577 8.04796L26.2439 12.3085C27.1232 12.8159 27.123 14.0888 26.2439 14.5994L18.8577 18.857L14.5962 26.2431C14.0857 27.1259 12.8127 27.1259 12.3053 26.2431L8.04771 18.857L0.661551 14.5994C-0.22054 14.0888 -0.220827 12.8159 0.661551 12.3085L8.04771 8.04796L12.3053 0.661802Z" fill="url(#paint0_linear_272_885)"/>
<defs>
<linearGradient id="paint0_linear_272_885" x1="4.74095" y1="5.76656" x2="29.3374" y2="34.9749" gradientUnits="userSpaceOnUse">
<stop stop-color="#EEC2F7"/>
<stop offset="1" stop-color="#FFC4C8"/>
</linearGradient>
</defs>
</svg>
