<svg xmlns="http://www.w3.org/2000/svg" viewBox="0 0 1600 900" width="1600" height="900">
  <defs>
    <linearGradient id="bgGrad" x1="0" y1="0" x2="1" y2="1">
      <stop offset="0" stop-color="#2b2b5e"/>
      <stop offset="1" stop-color="#1b1b2f"/>
    </linearGradient>
    <radialGradient id="glow" cx="0.5" cy="0.2" r="0.6">
      <stop offset="0" stop-color="#7ad1ff" stop-opacity="0.6"/>
      <stop offset="1" stop-color="#7ad1ff" stop-opacity="0"/>
    </radialGradient>
    <filter id="neon">
      <feGaussianBlur stdDeviation="2" result="blur"/>
      <feColorMatrix in="blur" type="matrix" values="0 0 0 0 0  0 0 0 0 0  0 0 0 0 0  0 0 0 1 0"/>
    </filter>
    <linearGradient id="gridStroke" x1="0" y1="0" x2="1" y2="0">
      <stop offset="0" stop-color="#8ab4ff"/>
      <stop offset="1" stop-color="#b388ff"/>
    </linearGradient>
  </defs>

  <!-- Background -->
  <rect x="0" y="0" width="1600" height="900" fill="url(#bgGrad)"/>
  <rect x="0" y="0" width="1600" height="900" fill="url(#glow)" opacity="0.35"/>

  <!-- Perspective grid (vanishing point near center top) -->
  <g stroke="url(#gridStroke)" stroke-width="1" opacity="0.5">
    <!-- Horizontal lines, compressed towards the top for perspective -->
    <path d="M0 820 H1600"/>
    <path d="M0 760 H1600"/>
    <path d="M0 710 H1600"/>
    <path d="M0 670 H1600"/>
    <path d="M0 640 H1600"/>
    <path d="M0 620 H1600"/>
    <path d="M0 605 H1600"/>
    <path d="M0 595 H1600"/>
    <path d="M0 588 H1600"/>

    <!-- Vertical lines converging to vanishing point (800,220) -->
    <path d="M-200 900 L800 220"/>
    <path d="M50 900 L800 220"/>
    <path d="M300 900 L800 220"/>
    <path d="M550 900 L800 220"/>
    <path d="M800 900 L800 220"/>
    <path d="M1050 900 L800 220"/>
    <path d="M1300 900 L800 220"/>
    <path d="M1550 900 L800 220"/>
    <path d="M1800 900 L800 220"/>
  </g>

  <!-- Neon horizon line -->
  <g filter="url(#neon)" opacity="0.75">
    <path d="M0 595 H1600" stroke="#9ec8ff" stroke-width="2"/>
  </g>

  <!-- Subtle stars -->
  <g fill="#cfe4ff" opacity="0.25">
    <circle cx="120" cy="140" r="2"/>
    <circle cx="420" cy="90" r="1.8"/>
    <circle cx="980" cy="160" r="2.2"/>
    <circle cx="1320" cy="60" r="1.6"/>
    <circle cx="740" cy="40" r="2"/>
  </g>
</svg>