<svg width="42" height="42" viewBox="0 0 42 42" fill="none" xmlns="http://www.w3.org/2000/svg">
  <!-- 大星星 -->
  <defs>
    <linearGradient id="lg1" x1="0" y1="0" x2="42" y2="42" gradientUnits="userSpaceOnUse">
      <stop offset="0%" stop-color="#EEC2F7"/>
      <stop offset="100%" stop-color="#FFC4C8"/>
    </linearGradient>
    <linearGradient id="lg2" x1="0" y1="0" x2="16" y2="17" gradientUnits="userSpaceOnUse">
      <stop offset="0%" stop-color="#EEC2F7"/>
      <stop offset="100%" stop-color="#FFC4C8"/>
    </linearGradient>
  </defs>
  <path d="M21 6c1.6 4.8 2.9 6.1 7.7 7.7-4.8 1.6-6.1 2.9-7.7 7.7-1.6-4.8-2.9-6.1-7.7-7.7 4.8-1.6 6.1-2.9 7.7-7.7z" fill="url(#lg1)"/>
  <!-- 小星星（偏右下） -->
  <path d="M31 26c0.9 2.7 1.6 3.4 4.1 4.1-2.5 0.8-3.2 1.5-4.1 4.1-0.9-2.6-1.6-3.3-4.1-4.1 2.5-0.7 3.2-1.5 4.1-4.1z" fill="url(#lg2)"/>
</svg>